<?xml version="1.0" encoding="UTF-8" standalone="no"?>
<svg
   viewBox="0 0 262144 262144"
   version="1.1"
   id="svg6"
   width="262144"
   height="262144"
   xmlns="http://www.w3.org/2000/svg"
   xmlns:svg="http://www.w3.org/2000/svg">
  <defs
     id="defs10" />
  <!--! Font Awesome Pro 6.2.0 by @fontawesome - https://fontawesome.com License - https://fontawesome.com/license (Commercial License) Copyright 2022 Fonticons, Inc. -->
  <path
     fill="#D6C585"
     d="M 256,512 C 397.4,512 512,397.4 512,256 512,114.6 397.4,0 256,0 114.6,0 0,114.6 0,256 0,397.4 114.6,512 256,512 Z"
     id="path2"
     style="fill:#ffffff" />
  <path
     d="M 512,256 C 512,397.4 397.4,512 256,512 114.6,512 0,397.4 0,256 0,114.6 114.6,0 256,0 397.4,0 512,114.6 512,256 Z M 384,192 C 384,121.3 326.7,64 256,64 c -70.7,0 -128,57.3 -128,128 0,70.7 57.3,128 128,128 70.7,0 128,-57.3 128,-128 z m -80,-48 c 0,11.5 -4,22 -10.7,30.2 11.5,10.3 18.7,25.2 18.7,41.8 0,30.9 -25.1,56 -56,56 -30.9,0 -56,-25.1 -56,-56 0,-16.6 7.2,-31.5 18.7,-41.8 C 212,166 208,155.5 208,144 c 0,-26.5 21.5,-48 48,-48 26.5,0 48,21.5 48,48 z m -48,16 c 8.8,0 16,-7.2 16,-16 0,-8.8 -7.2,-16 -16,-16 -8.8,0 -16,7.2 -16,16 0,8.8 7.2,16 16,16 z m 24,56 c 0,-13.3 -10.7,-24 -24,-24 -13.3,0 -24,10.7 -24,24 0,13.3 10.7,24 24,24 13.3,0 24,-10.7 24,-24 z"
     id="path4" />
</svg>
