<?xml version="1.0" encoding="utf-8"?>
<!-- Generator: Adobe Illustrator 27.4.0, SVG Export Plug-In . SVG Version: 6.00 Build 0)  -->
<svg version="1.1" id="Layer_1" xmlns="http://www.w3.org/2000/svg" xmlns:xlink="http://www.w3.org/1999/xlink" x="0px" y="0px"
	 viewBox="0 0 286.6 69.6" style="enable-background:new 0 0 286.6 69.6;" xml:space="preserve">
<style type="text/css">
	.st0{fill:#1B1B1A;}
</style>
<g>
	<path class="st0" d="M195.2,27.2v-5.5c0-1.8-0.5-2.8-2.3-2.8h-2v11.4h2C194.7,30.2,195.2,29,195.2,27.2z"/>
	<path class="st0" d="M85.1,27.2v-5.5c0-1.8-0.5-2.8-2.3-2.8h-2v11.4h2C84.6,30.2,85.1,29,85.1,27.2z"/>
	<path class="st0" d="M168.6,18.9h-1.8V31h1.8c1.8,0,2.4-1.2,2.4-3.1v-6.1C171,19.8,170.6,18.9,168.6,18.9z"/>
	<path class="st0" d="M82.8,36.7h-2v13.8h2c2.1,0,2.6-1,2.6-2.9v-8C85.4,37.7,84.9,36.7,82.8,36.7z"/>
	<path class="st0" d="M213.4,18.9c-1.7,0-2.4,1.1-2.4,3.4v25.2c0,1.9,0.5,3.4,2.4,3.4c1.8,0,2.2-1.5,2.2-3.4V22.2
		C215.7,19.9,215,18.9,213.4,18.9z"/>
	<path class="st0" d="M192.9,36.7h-2v13.8h2c2.1,0,2.6-1,2.6-2.9v-8C195.5,37.7,195,36.7,192.9,36.7z"/>
	<polygon class="st0" points="230.3,41.9 233.7,41.9 232,25.7 	"/>
	<path class="st0" d="M286.6,0H0v69.6h286.6l-17.4-34.8L286.6,0z M30.7,19.3h-5.6v37.4h-6.6V19.3h-5.6v-6.4h17.8
		C30.7,12.9,30.7,19.3,30.7,19.3z M50,56.7h-6.6V37.5h-4.5v19.2h-6.6V12.9h6.6v17.5h4.5V12.9H50V56.7z M67.5,56.7H52V12.9h15.1v6.4
		h-8.5v11.5h6.6v6.6h-6.6V50h8.8L67.5,56.7L67.5,56.7z M92.2,48.7c0,4.6-2.1,8-7.1,8H74.2V12.9h10.5c5.5,0,7,2.9,7,7.1v6.7
		c0,3.6-1.6,5.4-3.3,6.1c1.8,0.6,3.8,2.1,3.8,6.4V48.7z M100.9,56.7h-6.6V12.9h6.6V56.7z M120.9,56.7h-3.8c-0.1-0.2-0.6-2.4-1.1-4.3
		c-0.5,1.5-2.7,4.9-6.1,4.9h-0.4c-3.9,0-6.4-3.5-6.4-8V21.9c0-4.9,1.9-9.4,8.2-9.4h1.3c7.1,0,7.9,4.6,7.9,9.8v4.5H114v-4.9
		c0-1.9-0.5-3-2.1-3c-1.4,0-2.1,1.1-2.1,3v25.6c0,2.1,0.8,3.1,2.2,3.1c1.7,0,2.5-1.2,2.5-2.8v-11h-3v-6.7h9.3L120.9,56.7L120.9,56.7
		z M140.6,56.7h-3.8c-0.1-0.2-0.6-2.4-1.1-4.3c-0.5,1.5-2.7,4.9-6.1,4.9h-0.4c-3.9,0-6.4-3.5-6.4-8V21.9c0-4.9,1.9-9.4,8.2-9.4h1.3
		c7.1,0,7.9,4.6,7.9,9.8v4.5h-6.5v-4.9c0-1.9-0.5-3-2.1-3c-1.4,0-2.1,1.1-2.1,3v25.6c0,2.1,0.8,3.1,2.2,3.1c1.7,0,2.5-1.2,2.5-2.8
		v-11h-3v-6.7h9.3v26.6C140.5,56.7,140.6,56.7,140.6,56.7z M158.1,56.7h-15.5V12.9h15.1v6.4h-8.5v11.5h6.6v6.6h-6.6V50h8.8
		L158.1,56.7L158.1,56.7z M178.3,56.7h-6.6c-0.3-0.5-0.6-1.2-0.6-3.6V39.9c0-1.9-0.4-2.8-2.5-2.8h-1.7v19.5h-6.6V12.9H171
		c4.4,0,6.6,1.9,6.6,6.8v7.8c0,3.6-1.7,5.1-2.9,5.6c1.5,0.6,2.9,1.8,2.9,4.8v15.4c0,1.8,0.4,2.6,0.6,3.2L178.3,56.7L178.3,56.7z
		 M202.3,48.7c0,4.6-2.1,8-7.1,8h-10.9V12.9h10.5c5.5,0,7,2.9,7,7.1v6.7c0,3.6-1.6,5.4-3.3,6.1c1.8,0.6,3.8,2.1,3.8,6.4V48.7z
		 M222.4,46.9c0,6.1-2,10.3-8.4,10.3h-1.1c-6.4,0-8.6-4.2-8.6-10.3V22.6c0-6.1,2.3-10.1,8.5-10.1h1.1c6.5,0,8.5,4,8.5,10V46.9
		L222.4,46.9z M235.3,56.7l-0.9-8.2h-4.9l-0.8,8.2h-5.9l5.4-43.8h7.9l5.7,43.8H235.3z M256.3,19.3h-5.6v37.4h-6.6V19.3h-5.6v-6.4
		h17.8L256.3,19.3L256.3,19.3z"/>
</g>
</svg>
